<svg xmlns="http://www.w3.org/2000/svg" width="790" height="659" fill="none"><path fill="#4A90E2" d="M237.268 358.414V119.318h-9.115v255.698a939.888 939.888 0 0 1 9.115-16.602ZM237.268 385.475a879.6 879.6 0 0 0-9.115 17.939v65.678c3.068-.533 6.106-1.074 9.115-1.623v-81.994ZM266.599 587.422h-6.544a22.757 22.757 0 0 1-16.113-6.691 22.88 22.88 0 0 1-6.674-16.155v-82.471c-3.039.636-6.078 1.258-9.115 1.866v79.463a24.02 24.02 0 0 1-7.008 16.962 23.892 23.892 0 0 1-16.918 7.026h-72.883v13.708a713.28 713.28 0 0 1 101.657-7.242c12.016.005 23.641.316 34.853.869a406.67 406.67 0 0 1-1.255-7.335ZM283.457 595.704a713.723 713.723 0 0 1 50.62 5.426v-13.708h-51.696a344.2 344.2 0 0 0 1.076 8.282ZM699.254 85.605h9.592V71.898A702.706 702.706 0 0 1 696.14 73.6c1.175 3.92 2.213 7.921 3.114 12.004ZM612.037 181.068c-3.044.889-6.083 1.767-9.115 2.636v98.774a195.537 195.537 0 0 0 9.115-6.616v-94.794ZM602.922 302.379V553.71h9.115V296.899a200.678 200.678 0 0 1-9.115 5.48ZM549.878 76.802a713.701 713.701 0 0 1-43.765-4.904v13.707h41.681a996.931 996.931 0 0 1 2.084-8.803ZM607.189 79.14a712.549 712.549 0 0 1-45.099-1.454 909.018 909.018 0 0 0-1.883 7.92h19.928c6.044 0 11.84 2.407 16.113 6.691a22.878 22.878 0 0 1 6.674 16.155v60.256c3.037-.82 6.075-1.648 9.115-2.485v-56.629a24.02 24.02 0 0 1 7.008-16.962 23.893 23.893 0 0 1 16.918-7.026h46.182a156.14 156.14 0 0 0-2.522-10.127 713.028 713.028 0 0 1-72.434 3.66Z"/><path fill="#4A90E2" d="M575.611 527.971C513.944 463.19 450.623 400 389.279 334.911 276.017 214.733 249.993 180.884 165.06 111.742 143.002 98.034 90.19 74.981 57.32 87.508c-3.721 1.227-6.422-4.587-2.195-5.967 57.677-22.846 124.482-18.003 168.579 24.192 37.48 36.998 376.631 383.526 407.886 415.986 35.772 37.151 82.299 67.283 132.101 67.077 71.286-10.017-17.563 37.668-85.572 9.315-3.458-1.442-5.792-2.273-9.821-4.044-51.259-22.529-84.936-57.954-92.687-66.096Z"/><path fill="#032136" d="M450.957 314.746c-2.449-1.016-3.152-3.676-1.653-3.9.485-.039.972.047 1.416.249 18.721 8.411 41.822 11.25 66.41 8.644 1.776-24.079 6.796-70.612 14.464-121.997-24.567 5.83-48.198 10.751-68.882 13.849-22.633 3.389-41.893 4.737-55.62 3.105-30.414-3.588-35.018-23.177-22.788-48.053 12.696-25.868 54.969-65.074 94.389-70.977a60.453 60.453 0 0 1 16.801-.366c23.873 2.878 36.265 30.519 41.893 66.24 5.393-31.687 11.812-63.681 19.046-92.264 9.665-44.156 30.255-65.368 53.038-68.78 44.816-6.71 97.569 55.291 88.514 144.676 21.6-7.229 39.177-13.702 50.248-18.585 3.164-1.396 4.233 1.67 1.647 2.825-11.521 4.952-29.952 11.86-52.385 19.674a225.775 225.775 0 0 1-9.566 42.759c-24.994 77.024-90.778 119.906-153.745 130.256-.843 5.657-1.52 10.368-2.249 13.703-1.331 6.498-4.84 10.71-8.288 11.227-3.597.538-7.027-2.943-7.254-11.665.009-1.999.049-5.845.464-11.285-23.823 1.571-46.646-1.464-65.9-9.335Zm21.682-112.63c18.436-2.761 38.858-6.587 60.068-11.3.429-3.29 1.031-6.453 1.61-9.766-2.438-43.112-12.397-79.106-38.375-82.744a60.08 60.08 0 0 0-17.445.155c-38.821 5.813-79.168 44.578-91.908 70.144-10.857 21.751-6.301 33.821 22.869 37.288 15.121 1.729 37.251.106 63.181-3.777Zm46.797 133.102c.242 7.799 1.754 9.723 3.53-.99.519-2.689 1.03-6.453 1.753-10.863-1.499.225-3.298.494-4.819.568a111.58 111.58 0 0 0-.464 11.285Zm2.04-16.13 2.721-.254 1.199-.179c4.049-27.338 9.954-76.154 9.412-120.933-7.69 51.234-12.605 97.445-14.531 121.546l1.199-.18Zm166.695-166.762c-42.153 14.301-96.402 30.721-147.396 43.273 2.318 44.36-1.984 92.628-5.853 121.168 58.218-12.405 119.632-54.786 143.994-126.798a226.886 226.886 0 0 0 9.255-37.643Zm.595-4.237c11.49-87.445-36.924-151.172-79.192-144.843-20.834 3.12-40.338 23.401-50.181 66.355-7.903 31.294-14.812 67.203-20.484 102.158.678 5.583 1.079 11.36 1.503 17.289 51.278-11.673 106.261-27.281 148.354-40.959ZM265.091 471.396c-18.197 4.033-37.384 8.24-56.769 11.746-2.176 6.486-4.549 12.622-6.725 18.056-5.934 14.901-22.747 16.304-19.978-3.155a110.246 110.246 0 0 1 2.572-10.694c-54.396 8.766-109.385 12.447-151.121 2.455-38.571-9.292-40.747-32.432-20.176-58.728 24.528-31.204 101.077-71.7 157.253-62.409 28.088 4.558 41.538 19.81 46.483 38.918 19.187-39.443 45.693-86.075 77.737-129.551 3.758-7.012 10.681-5.084 9.099 2.279-6.924 32.081-20.572 106.937-26.308 183.721 27.098-5.785 51.824-11.746 71.406-16.479 4.351-1.052 5.143 2.63 1.582 3.507-20.175 4.733-45.296 11.043-73.187 17.53-5.142 74.154-2.769 149.36 20.374 187.928 1.187 1.928-1.78 3.681-3.758 1.402-11.473-13.323-32.44-78.712-28.484-186.526Zm-78.724 8.941c4.944-15.427 13.846-37.866 25.911-63.636-.395-21.562-10.681-39.268-42.131-44.528-55.978-9.466-129.956 30.504-154.68 61.533-18.2 22.965-14.638 37.515 22.35 46.456 40.946 9.817 94.945 7.538 148.55.175Zm-.792 18.057c-1.186 8.94.396 11.394 4.747-.526 1.385-3.857 2.967-7.889 4.55-12.272l-6.528 1.052a79.915 79.915 0 0 0-2.769 11.746Zm6.923-18.933 3.363-.526c.593 0 1.187-.176 1.78-.176 6.132-16.128 12.264-34.535 14.044-51.54-9.494 21.037-16.615 39.269-20.967 52.417a6.132 6.132 0 0 1 1.78-.175Zm72.791-12.798c2.176-50.838 9.891-110.793 26.704-178.987-30.461 41.898-55.78 87.828-73.978 126.22 3.165 19.81-1.385 42.775-7.517 62.76 18.791-2.98 37.187-6.311 54.791-9.993Zm32.836-187.401-.198.175s.198 0 .198-.175Z"/></svg>