<svg width="790" height="659" viewBox="0 0 790 659" fill="none" xmlns="http://www.w3.org/2000/svg">
<path d="M237.268 358.414V119.318H228.153V375.016C231.013 369.675 234.051 364.141 237.268 358.414Z" fill="#4A90E2"/>
<path d="M237.268 385.475C233.987 391.753 230.947 397.756 228.153 403.414V436.253V469.092C231.221 468.559 234.259 468.018 237.268 467.469V426.472V385.475Z" fill="#4A90E2"/>
<path d="M266.599 587.422H260.055C254.011 587.422 248.215 585.015 243.942 580.731C239.669 576.446 237.268 570.635 237.268 564.576V482.105C234.229 482.741 231.19 483.363 228.153 483.971V563.434C228.153 569.796 225.632 575.897 221.145 580.396C216.658 584.895 210.573 587.422 204.227 587.422H131.344V601.13C165.015 596.295 198.987 593.875 233.001 593.888C245.017 593.893 256.642 594.204 267.854 594.757C267.423 592.374 267.005 589.928 266.599 587.422Z" fill="#4A90E2"/>
<path d="M283.457 595.704C301.578 596.997 318.505 598.894 334.077 601.13V587.422H282.381C282.716 590.239 283.07 593.011 283.457 595.704Z" fill="#4A90E2"/>
<path d="M699.254 85.6054H708.846V71.8976C704.708 72.4918 700.473 73.0597 696.14 73.6014C697.315 77.5209 698.353 81.5222 699.254 85.6054Z" fill="#4A90E2"/>
<path d="M612.037 181.068C608.993 181.957 605.954 182.835 602.922 183.704V282.478C605.996 280.38 609.035 278.175 612.037 275.862V181.068Z" fill="#4A90E2"/>
<path d="M602.922 302.379V553.71H612.037V296.899C609.025 298.82 605.986 300.646 602.922 302.379Z" fill="#4A90E2"/>
<path d="M549.878 76.8018C534.331 75.5416 519.705 73.8495 506.113 71.8976V85.6054H547.794C548.485 82.6284 549.179 79.6938 549.878 76.8018Z" fill="#4A90E2"/>
<path d="M607.189 79.1393C591.467 79.1329 576.421 78.6008 562.09 77.6865C561.46 80.2842 560.832 82.924 560.207 85.6057H580.135C586.179 85.6057 591.975 88.0127 596.248 92.2972C600.521 96.5817 602.922 102.393 602.922 108.452V168.708C605.959 167.888 608.997 167.06 612.037 166.223V109.594C612.037 103.232 614.558 97.1305 619.045 92.6318C623.532 88.1331 629.617 85.6057 635.963 85.6057H682.145C681.408 82.1667 680.568 78.7912 679.623 75.4793C655.556 77.9273 631.38 79.1488 607.189 79.1393Z" fill="#4A90E2"/>
<path d="M575.611 527.971C513.944 463.19 450.623 400 389.279 334.911C276.017 214.733 249.993 180.884 165.06 111.742C143.002 98.0344 90.1892 74.9807 57.3204 87.5076C53.5988 88.7347 50.898 82.9211 55.1246 81.5406C112.802 58.6947 179.607 63.5384 223.704 105.733C261.184 142.731 600.335 489.259 631.59 521.719C667.362 558.87 713.889 589.002 763.691 588.796C834.977 578.779 746.128 626.464 678.119 598.111C674.661 596.669 672.327 595.838 668.298 594.067C617.039 571.538 583.362 536.113 575.611 527.971Z" fill="#4A90E2"/>
<path d="M450.957 314.746C448.508 313.73 447.805 311.07 449.304 310.846C449.789 310.807 450.276 310.893 450.72 311.095C469.441 319.506 492.542 322.345 517.13 319.739C518.906 295.66 523.926 249.127 531.594 197.742C507.027 203.572 483.396 208.493 462.712 211.591C440.079 214.98 420.819 216.328 407.092 214.696C376.678 211.108 372.074 191.519 384.304 166.643C397 140.775 439.273 101.569 478.693 95.6657C484.249 94.7623 489.904 94.6394 495.494 95.3004C519.367 98.1781 531.759 125.819 537.387 161.54C542.78 129.853 549.199 97.859 556.433 69.2759C566.098 25.12 586.688 3.90817 609.471 0.496522C654.287 -6.21458 707.04 55.787 697.985 145.172C719.585 137.943 737.162 131.47 748.233 126.587C751.397 125.191 752.466 128.257 749.88 129.412C738.359 134.364 719.928 141.272 697.495 149.086C695.7 163.617 692.496 177.937 687.929 191.845C662.935 268.869 597.151 311.751 534.184 322.101C533.341 327.758 532.664 332.469 531.935 335.804C530.604 342.302 527.095 346.514 523.647 347.031C520.05 347.569 516.62 344.088 516.393 335.366C516.402 333.367 516.442 329.521 516.857 324.081C493.034 325.652 470.211 322.617 450.957 314.746ZM472.639 202.116C491.075 199.355 511.497 195.529 532.707 190.816C533.136 187.526 533.738 184.363 534.317 181.05C531.879 137.938 521.92 101.944 495.942 98.3064C490.15 97.5088 484.273 97.5608 478.497 98.4607C439.676 104.274 399.329 143.039 386.589 168.605C375.732 190.356 380.288 202.426 409.458 205.893C424.579 207.622 446.709 205.999 472.639 202.116ZM519.436 335.218C519.678 343.017 521.19 344.941 522.966 334.228C523.485 331.539 523.996 327.775 524.719 323.365C523.22 323.59 521.421 323.859 519.9 323.933C519.555 327.684 519.4 331.451 519.436 335.218ZM521.476 319.088L524.197 318.834L525.396 318.655C529.445 291.317 535.35 242.501 534.808 197.722C527.118 248.956 522.203 295.167 520.277 319.268L521.476 319.088ZM688.171 152.326C646.018 166.627 591.769 183.047 540.775 195.599C543.093 239.959 538.791 288.227 534.922 316.767C593.14 304.362 654.554 261.981 678.916 189.969C683.069 177.71 686.165 165.116 688.171 152.326ZM688.766 148.089C700.256 60.6436 651.842 -3.08338 609.574 3.24604C588.74 6.36593 569.236 26.6471 559.393 69.6006C551.49 100.895 544.581 136.804 538.909 171.759C539.587 177.342 539.988 183.119 540.412 189.048C591.69 177.375 646.673 161.767 688.766 148.089Z" fill="#032136"/>
<path d="M265.091 471.396C246.894 475.429 227.707 479.636 208.322 483.142C206.146 489.628 203.773 495.764 201.597 501.198C195.663 516.099 178.85 517.502 181.619 498.043C182.298 494.438 183.156 490.869 184.191 487.349C129.795 496.115 74.8064 499.796 33.0699 489.804C-5.50106 480.512 -7.6768 457.372 12.8943 431.076C37.4216 399.872 113.971 359.376 170.147 368.667C198.235 373.225 211.685 388.477 216.63 407.585C235.817 368.142 262.323 321.51 294.367 278.034C298.125 271.022 305.048 272.95 303.466 280.313C296.542 312.394 282.894 387.25 277.158 464.034C304.256 458.249 328.982 452.288 348.564 447.555C352.915 446.503 353.707 450.185 350.146 451.062C329.971 455.795 304.85 462.105 276.959 468.592C271.817 542.746 274.19 617.952 297.333 656.52C298.52 658.448 295.553 660.201 293.575 657.922C282.102 644.599 261.135 579.21 265.091 471.396ZM186.367 480.337C191.311 464.91 200.213 442.471 212.278 416.701C211.883 395.139 201.597 377.433 170.147 372.173C114.169 362.707 40.1911 402.677 15.4661 433.706C-2.73221 456.671 0.828609 471.221 37.8175 480.162C78.7626 489.979 132.762 487.7 186.367 480.337ZM185.575 498.394C184.389 507.334 185.971 509.788 190.322 497.868C191.707 494.011 193.289 489.979 194.872 485.596C192.696 485.947 190.52 486.298 188.344 486.648C187.126 490.488 186.201 494.414 185.575 498.394ZM192.498 479.461L195.861 478.935C196.454 478.935 197.048 478.759 197.641 478.759C203.773 462.631 209.905 444.224 211.685 427.219C202.191 448.256 195.07 466.488 190.718 479.636C191.3 479.491 191.899 479.432 192.498 479.461ZM265.289 466.663C267.465 415.825 275.18 355.87 291.993 287.676C261.532 329.574 236.213 375.504 218.015 413.896C221.18 433.706 216.63 456.671 210.498 476.656C229.289 473.676 247.685 470.345 265.289 466.663ZM298.125 279.262L297.927 279.437C297.927 279.437 298.125 279.437 298.125 279.262Z" fill="#032136"/>
</svg>
